<?xml version="1.0" encoding="UTF-8" standalone="no"?><!DOCTYPE svg PUBLIC "-//W3C//DTD SVG 1.1//EN"
        "http://www.w3.org/Graphics/SVG/1.1/DTD/svg11.dtd">
<svg width="100%" height="100%" viewBox="0 0 45 45" version="1.1" xmlns="http://www.w3.org/2000/svg"
     xml:space="preserve"
     style="fill-rule:evenodd;clip-rule:evenodd;"><g id="Twitter-round-small"><g><path id="Rectangle-2" d="M44.75,22.5c0,-12.28 -9.97,-22.25 -22.25,-22.25c-12.28,0 -22.25,9.97 -22.25,22.25c0,12.28 9.97,22.25 22.25,22.25c12.28,0 22.25,-9.97 22.25,-22.25Z" style="fill:none;stroke:#000;stroke-width:0.5px;"/></g><path
        d="M18.545,14.148c0,0.974 -0.783,1.764 -1.75,1.764c-0.967,0 -1.751,-0.79 -1.751,-1.764c0,-0.975 0.784,-1.765 1.751,-1.765c0.967,-0 1.75,0.79 1.75,1.765Zm0.014,3.176l-3.529,-0l0,11.293l3.529,0l0,-11.293Zm5.634,-0l-3.506,-0l-0,11.293l3.507,0l-0,-5.928c-0,-3.296 4.255,-3.566 4.255,-0l0,5.928l3.521,0l-0,-7.151c-0,-5.562 -6.297,-5.359 -7.777,-2.621l0,-1.521Z"
        style="fill:#000;fill-rule:nonzero;"/></g></svg>
