<?xml version="1.0" encoding="UTF-8"?>
<svg width="45px" height="45px" viewBox="0 0 45 45" version="1.1" xmlns="http://www.w3.org/2000/svg" xmlns:xlink="http://www.w3.org/1999/xlink">
    <!-- Generator: Sketch 61.2 (89653) - https://sketch.com -->
    <title>Twitter round small</title>
    <desc>Created with Sketch.</desc>
    <g id="Twitter-round-small" stroke="none" stroke-width="1" fill="none" fill-rule="evenodd">
        <g>
            <path d="M30.8974609,18.2640856 C30.2744141,18.5398017 29.6083984,18.7259996 28.9065755,18.8119371 C29.6227214,18.3822496 30.1741536,17.7019111 30.4319661,16.8926663 C29.7623698,17.2901272 29.0211589,17.5801663 28.2298177,17.7341376 C27.5960286,17.0573798 26.6936849,16.6348538 25.6982422,16.6348538 C23.7825521,16.6348538 22.2320964,18.1888902 22.2320964,20.1045803 C22.2320964,20.3767158 22.2607422,20.6416897 22.3216146,20.8959215 C19.4391276,20.7526923 16.882487,19.3705309 15.1744792,17.2686428 C14.8772786,17.7806871 14.7054036,18.3786689 14.7054036,19.0124579 C14.7054036,20.2155829 15.3212891,21.2790595 16.2522786,21.9021064 C15.679362,21.8877835 15.1422526,21.7302314 14.6767578,21.4688382 C14.6767578,21.4831611 14.6767578,21.497484 14.6767578,21.5118069 C14.6767578,23.1947496 15.8727214,24.5948147 17.4589844,24.9134996 C17.1689453,24.9922757 16.8610026,25.0352444 16.5458984,25.0352444 C16.3238932,25.0352444 16.1054688,25.01376 15.8942057,24.9707913 C16.3346354,26.349372 17.6165365,27.3519762 19.1347656,27.380622 C17.9495443,28.3116116 16.4527995,28.8666246 14.8271484,28.8666246 C14.5478516,28.8666246 14.2721354,28.848721 14,28.8164944 C15.5289714,29.8119371 17.3515625,30.3848538 19.3066406,30.3848538 C25.6910807,30.3848538 29.1787109,25.0961168 29.1787109,20.5092027 C29.1787109,20.3588121 29.1751302,20.2084215 29.1679688,20.0616116 C29.8447266,19.5710517 30.4319661,18.9623277 30.8974609,18.2640856 Z" id="Shape" fill="#000" fill-rule="nonzero"></path>
            <rect id="Rectangle-2" stroke="#000" stroke-width="0.5" x="0.25" y="0.25" width="44.5" height="44.5" rx="22.25"></rect>
        </g>
    </g>
</svg>
